# xmcd CD database file
#
# Track frame offsets:
#	150
#	52853
#	101460
#	130390
#	161070
#	183133
#	202864
#
# Disc length: 2932 seconds
#
# Revision: 0
# Processed by: cddbd v1.5.1PL0 Copyright (c) Steve Scherf et al.
# Submitted via: CDex 1.60beta1
#
DISCID=510b7207
DTITLE=Byron Stingily - Stand Right Up (The Johnny Vicious Remix)
DYEAR=1900
DGENRE=Blues
TTITLE0=Stand Right Up (The Johnny Vicious Remix)
TTITLE1=Stand Right Up (Basement Boys Production)
TTITLE2=In My Mind (Basement Boys Production)
TTITLE3=Stand Right Up (Johnny Vicious Dub)
TTITLE4=In My Mind (Basement Boys Paradox Dub)
TTITLE5=Stand Right Up (Johnny Vicious Radio Edit)
TTITLE6=Stand Right Up (Basement Boys Radio Edit)
EXTD=
EXTT0=
EXTT1=
EXTT2=
EXTT3=
EXTT4=
EXTT5=
EXTT6=
PLAYORDER=
